<?xml version="1.0" encoding="utf-8"?>
<!-- Generator: Adobe Illustrator 18.0.0, SVG Export Plug-In . SVG Version: 6.00 Build 0)  -->
<!DOCTYPE svg PUBLIC "-//W3C//DTD SVG 1.1//EN" "http://www.w3.org/Graphics/SVG/1.1/DTD/svg11.dtd">
<svg version="1.1" id="Livello_1" xmlns="http://www.w3.org/2000/svg" xmlns:xlink="http://www.w3.org/1999/xlink" x="0px" y="0px"
	 viewBox="0 0 612 792" enable-background="new 0 0 612 792" xml:space="preserve">
<path fill-rule="evenodd" clip-rule="evenodd" fill="#E44D26" d="M142.3,229.5h296l-27,302l-122,35l-120-34L142.3,229.5z"/>
<path fill-rule="evenodd" clip-rule="evenodd" fill="#EC652B" d="M292,254.5h121l-22,259l-98,27L292,254.5z"/>
<path fill-rule="evenodd" clip-rule="evenodd" fill="#FFFFFF" d="M266,295.5c0,64,0,128,0,192c4.2,0,15,0,26,0c11.5,0,23.2,0,28,0
	c0-64.3,0-128.7,0-193c-2.4,0-15.4,0.3-28,0.5C279.9,295.2,268.1,295.5,266,295.5z"/>
<path fill-rule="evenodd" clip-rule="evenodd" fill="#616160" d="M40,272.5h36l-20,123h45l1-123l36-1v236l-37-1v-87l-86-1L40,272.5z
	"/>
<path fill-rule="evenodd" clip-rule="evenodd" fill="#616160" d="M455,272.5h37l-20,124l45,1v-126h36l1,235l-37,1l-1-88h-85
	L455,272.5z"/>
<path fill-rule="evenodd" clip-rule="evenodd" fill="#EAEAEA" d="M263,273h65c0,0,31.6-0.3,32,22c0.4,22.3-1,192-1,192
	s6.1,21.6-32,22c-38.1,0.4-70,0-70,0s-31.1,3.2-31-23s0-193,0-193s0.9-19.7,34-20S263,273,263,273z"/>
<polygon fill-rule="evenodd" clip-rule="evenodd" fill="#E44D26" points="267,295.5 293,295 293,487.5 267,487.5 "/>
<path fill-rule="evenodd" clip-rule="evenodd" fill="#FFFFFF" d="M292,272.9h36.1c0,0,31.6-0.3,32,22c0.4,22.3-1,192-1,192
	s6.1,21.6-32,22c-12.4,0.1-34.4,0.2-34.4,0.2L292,272.9z"/>
<polygon fill-rule="evenodd" clip-rule="evenodd" fill="#EC652B" points="321,294.5 292,295 292,487.5 321,487.5 "/>
</svg>
