<?xml version="1.0" encoding="utf-8"?>
<!-- Generator: Adobe Illustrator 18.0.0, SVG Export Plug-In . SVG Version: 6.00 Build 0)  -->
<!DOCTYPE svg PUBLIC "-//W3C//DTD SVG 1.1//EN" "http://www.w3.org/Graphics/SVG/1.1/DTD/svg11.dtd">
<svg version="1.1" id="Livello_1" xmlns="http://www.w3.org/2000/svg" xmlns:xlink="http://www.w3.org/1999/xlink" x="0px" y="0px"
	 viewBox="0 0 1024 401" enable-background="new 0 0 1024 401" xml:space="preserve">
<path fill-rule="evenodd" clip-rule="evenodd" fill="#E44D26" d="M348.3,34h296l-27,302l-122,35l-120-34L348.3,34z"/>
<path fill-rule="evenodd" clip-rule="evenodd" fill="#EC652B" d="M498,59h121l-22,259l-98,27L498,59z"/>
<path fill-rule="evenodd" clip-rule="evenodd" fill="#FFFFFF" d="M472,100c0,64,0,128,0,192c4.2,0,15,0,26,0c11.5,0,23.2,0,28,0
	c0-64.3,0-128.7,0-193c-2.4,0-15.4,0.3-28,0.5C485.9,99.7,474.1,100,472,100z"/>
<path fill-rule="evenodd" clip-rule="evenodd" fill="#616160" d="M246,77h36l-20,123h45l1-123l36-1v236l-37-1v-87l-86-1L246,77z"/>
<path fill-rule="evenodd" clip-rule="evenodd" fill="#616160" d="M661,77h37l-20,124l45,1V76h36l1,235l-37,1l-1-88h-85L661,77z"/>
<path fill-rule="evenodd" clip-rule="evenodd" fill="#EAEAEA" d="M469,77.5h65c0,0,31.6-0.3,32,22s-1,192-1,192s6.1,21.6-32,22
	c-38.1,0.4-70,0-70,0s-31.1,3.2-31-23c0.1-26.2,0-193,0-193s0.9-19.7,34-20S469,77.5,469,77.5z"/>
<polygon fill-rule="evenodd" clip-rule="evenodd" fill="#E44D26" points="473,100 499,99.5 499,292 473,292 "/>
<path fill-rule="evenodd" clip-rule="evenodd" fill="#FFFFFF" d="M498,77.4h36.1c0,0,31.6-0.3,32,22c0.4,22.3-1,192-1,192
	s6.1,21.6-32,22c-12.4,0.1-34.4,0.2-34.4,0.2L498,77.4z"/>
<polygon fill-rule="evenodd" clip-rule="evenodd" fill="#EC652B" points="527,99 498,99.5 498,292 527,292 "/>
<path fill="#616160" d="M269.3,330.2h9.8V401h7.3v-70.8c0-4.8-2.4-7.3-7.3-7.3h-9.8c-4.9,0-7.3,2.4-7.3,7.3V401h7.3V330.2z"/>
<path fill="#616160" d="M310.8,393.7H301v-39.1h9.8L310.8,393.7z M318.1,354.6c0-4.9-2.4-7.3-7.3-7.3H301c-4.9,0-7.4,2.4-7.4,7.3
	v39.1c0,4.9,2.5,7.3,7.4,7.3h9.5c5,0,7.5-2.4,7.6-7.3V354.6z"/>
<path fill="#616160" d="M335.2,354.6v39.1c0,4.9,2.4,7.3,7.3,7.3h9.8v-7.3h-9.8v-39.1h9.8v-7.3h-9.8v-14.6h-7.3v14.6h-9.8v7.3H335.2
	z"/>
<path fill="#616160" d="M651.6,354.6v-24.4h14.6v-7.3h-22V401h7.3v-39.1l9.8,0v-7.3L651.6,354.6z"/>
<path fill="#616160" d="M690.7,393.7h-9.8v-39.1h9.8L690.7,393.7z M698,354.6c0-4.9-2.4-7.3-7.3-7.3H681c-4.9,0-7.4,2.4-7.4,7.3
	v39.1c0,4.9,2.5,7.3,7.4,7.3h9.5c5,0,7.5-2.4,7.6-7.3V354.6z"/>
<path fill="#616160" d="M722.4,393.7h-9.8v-46.4h-7.3v46.4c0,4.9,2.4,7.3,7.3,7.3h7.4c0.8,0,1.6-0.4,2.4-1.2l0,1.2h7.3v-53.7h-7.3
	V393.7z"/>
<path fill="#616160" d="M744.4,354.6h9.8V401h7.3v-46.4c0-4.9-2.4-7.3-7.3-7.3h-7.4c-0.8,0-1.6,0.4-2.4,1.2l0-1.2h-7.3V401h7.3
	V354.6z"/>
<path fill="#616160" d="M776.2,354.6h9.8v39.1h-9.8V354.6z M768.8,393.7c0,4.9,2.6,7.3,7.6,7.3h7.1c0.8,0,1.6-0.4,2.4-1.2v1.2h7.3
	v-78.1h-7.3v25.6c-0.8-0.8-1.6-1.2-2.4-1.2h-7.4c-4.9,0-7.3,2.4-7.3,7.3V393.7z"/>
</svg>
